<?xml version="1.0" encoding="utf-8"?>
<!-- Generator: NordNordWest -->
<!DOCTYPE svg PUBLIC "-//W3C//DTD SVG 1.1//EN" "http://www.w3.org/Graphics/SVG/1.1/DTD/svg11.dtd">
<svg version="1.1" id="Ebene_1" xmlns="http://www.w3.org/2000/svg" xmlns:xlink="http://www.w3.org/1999/xlink" x="0px" y="0px"
	 width="1415.195px" height="440.171px" viewBox="0 0 1415.195 440.171" enable-background="new 0 0 1415.195 440.171"
	 xml:space="preserve">
<g>
	
		<line fill="none" stroke="#000000" stroke-width="1.9843" stroke-miterlimit="10" x1="36.474" y1="304.669" x2="36.474" y2="171.921"/>
	
		<line fill="none" stroke="#000000" stroke-width="1.9843" stroke-miterlimit="10" x1="36.474" y1="410.022" x2="36.474" y2="314.784"/>
	<path stroke="#000000" stroke-width="1.9843" stroke-miterlimit="10" d="M38.768,304.669c0,0,2.672,0,5.917,0
		c3.244,0,12.025,1.146,12.025,1.146l-8.398,8.971h-9.544h-0.004H29.22l-8.398-8.971c0,0,8.781-1.146,12.025-1.146
		c3.245,0,5.917,0,5.917,0H38.768z"/>
	<path fill="none" stroke="#000000" stroke-width="1.9843" stroke-miterlimit="10" d="M47.153,314.772c0,0,1.35,22.154,3.448,45.06
		c2.1,22.906,6.489,50.202,6.489,50.202H38.767h-0.002H20.44c0,0,4.39-27.296,6.488-50.202c2.1-22.905,3.448-45.06,3.448-45.06"/>
	
		<line fill="none" stroke="#000000" stroke-width="1.9843" stroke-miterlimit="10" x1="41.058" y1="304.669" x2="41.058" y2="171.921"/>
	
		<line fill="none" stroke="#000000" stroke-width="1.9843" stroke-miterlimit="10" x1="41.058" y1="410.022" x2="41.058" y2="314.784"/>
	
		<line fill="none" stroke="#000000" stroke-width="1.9843" stroke-miterlimit="10" x1="38.841" y1="158.061" x2="38.841" y2="139.701"/>
	<polyline fill="none" stroke="#000000" stroke-width="1.9843" stroke-miterlimit="10" points="20.44,410.034 50.026,354.393 
		30.377,314.772 	"/>
	<polyline fill="none" stroke="#000000" stroke-width="1.9843" stroke-miterlimit="10" points="57.091,410.034 27.505,354.393 
		47.153,314.772 	"/>
	
		<line fill="none" stroke="#000000" stroke-width="1.9843" stroke-miterlimit="10" x1="25.593" y1="375.581" x2="51.906" y2="375.581"/>
	
		<line fill="none" stroke="#000000" stroke-width="1.9843" stroke-miterlimit="10" x1="27.505" y1="354.393" x2="50.026" y2="354.393"/>
	
		<line fill="none" stroke="#000000" stroke-width="1.9843" stroke-miterlimit="10" x1="29.196" y1="331.648" x2="48.165" y2="331.648"/>
	
		<line fill="none" stroke="#000000" stroke-width="1.9843" stroke-miterlimit="10" x1="30.938" y1="292.93" x2="46.591" y2="292.93"/>
	
		<line fill="none" stroke="#000000" stroke-width="1.9843" stroke-miterlimit="10" x1="30.938" y1="271.17" x2="46.591" y2="271.17"/>
	<line fill="none" stroke="#000000" stroke-width="1.9843" stroke-miterlimit="10" x1="31.606" y1="251.7" x2="45.923" y2="251.7"/>
	
		<line fill="none" stroke="#000000" stroke-width="1.9843" stroke-miterlimit="10" x1="31.989" y1="235.093" x2="45.446" y2="235.093"/>
	
		<line fill="none" stroke="#000000" stroke-width="1.9843" stroke-miterlimit="10" x1="32.466" y1="218.104" x2="44.873" y2="218.104"/>
	
		<line fill="none" stroke="#000000" stroke-width="1.9843" stroke-miterlimit="10" x1="32.848" y1="202.833" x2="44.587" y2="202.833"/>
	
		<line fill="none" stroke="#000000" stroke-width="1.9843" stroke-miterlimit="10" x1="32.848" y1="189.281" x2="44.587" y2="189.281"/>
	
		<line fill="none" stroke="#000000" stroke-width="1.9843" stroke-miterlimit="10" x1="33.679" y1="171.239" x2="30.557" y2="304.716"/>
	<path stroke="#000000" stroke-width="1.9843" stroke-miterlimit="10" d="M43.712,165.278l-0.297-7.218h-9.299l-0.298,7.218h-4.551
		c0,0,1.933,4.867,4.224,5.869c0.062,0.027,0.125,0.051,0.188,0.075v0.017h0.042c2.252,0.895,4.995,0.715,4.995,0.715h0.099
		c0,0,2.744,0.18,4.996-0.715h0.042v-0.017c0.062-0.024,0.126-0.048,0.188-0.075c2.291-1.002,4.224-5.869,4.224-5.869H43.712z"/>
	
		<line fill="none" stroke="#000000" stroke-width="1.9843" stroke-miterlimit="10" x1="46.975" y1="304.716" x2="43.853" y2="171.239"/>
</g>
<g>
	<path d="M1395.851,345.464v-49.67h-3.895c0-0.019,0.003-0.036,0.003-0.056c0-7.369-5.974-13.344-13.344-13.344
		s-13.344,5.975-13.344,13.344c0,0.02,0.003,0.037,0.003,0.056h-3.896v49.67h-24.094v-46.529h-6.435
		c0-0.058,0.004-0.116,0.004-0.175c0-18.355-13.827-33.573-31.932-36.411v-14.52h-3.994V235.41h-4.22v12.419h-3.994v14.52
		c-18.104,2.838-31.933,18.056-31.933,36.411c0,0.059,0.005,0.117,0.005,0.175h-6.436v46.529h-24.094v-49.67h-3.895
		c0-0.019,0.003-0.036,0.003-0.056c0-7.369-5.974-13.344-13.344-13.344s-13.344,5.975-13.344,13.344c0,0.02,0.003,0.037,0.003,0.056
		h-3.896v49.67h-6.673v50.652h-11.028l-2.837-4.912l-2.837,4.912h-53.2v-7.861l2.959-1.279v-8.809l-2.959-1.281v-16.859h-2.983
		l-4.246-18.5l-4.244,18.5h-2.982v16.859l-2.961,1.281v8.809l2.961,1.279v7.861h-60.657v-7.861l2.959-1.279v-8.809l-2.959-1.281
		v-16.859h-2.983l-4.244-18.5l-4.245,18.5h-2.984v16.859l-2.959,1.281v8.809l2.959,1.279v7.861h-53.2l-2.837-4.912l-2.837,4.912
		h-10.27V356.21h-45.04l-3.984-156.616h1.693v-6.708h-1.861l-0.166-6.48c8.139-2.871,13.981-10.607,13.981-19.729
		c0-8.574-5.162-15.936-12.542-19.172v-26.877h-3.111L899.451,4.414h-2.534l-4.016,116.214h-3.111v26.877
		c-7.381,3.236-12.542,10.598-12.542,19.172c0,9.121,5.843,16.857,13.982,19.729l-0.166,6.48h-1.862v6.708h1.692l-3.983,156.616
		h-34.685v-17.949h-3.183v-15.117h-1.591v-65.396h-12.164l-5.022-17.214l-5.021,17.214h-12.163v65.396h-1.591v15.117h-3.183v17.949
		H744.44v-75.319l-12.604-3.521l-5.959,0.394v-5.979c0.886-0.191,1.549-0.977,1.549-1.919c0-0.943-0.663-1.729-1.549-1.92v-5.494
		h-0.834v5.494c-0.885,0.191-1.548,0.977-1.548,1.92c0,0.942,0.663,1.728,1.548,1.919v6.033l-10.071,0.664l-5.561,6.115v45.821
		l-5.635-6.946v-50.179l-4.309-3.475l-0.278-4.17l-3.197,0.834l-0.417-4.31l-1.251-0.139l-0.277-5.421l-1.529-2.363l-5.56-0.417
		l-2.085-1.112l-0.835-4.309c0,0-2.779-1.112-4.864-1.946s-2.919,2.363-2.919,2.363l-5.421,31.275v45.592l-3.893,8.757v3.892
		l-4.726,17.375v-23.352l-6.255-34.75l-5.978,34.75l-0.208,25.698l-1.46,2.102v59.84h-14.985v-39.626l3.351-9.51h-3.664l1.256-8.493
		h-33.494v-1.675h-5.096c0.072-0.528-0.012-1.079-0.137-1.518c-0.209-0.732,0.785-1.622,0.941-1.203
		c0.158,0.419-0.313,1.569,0.209,1.727c0.523,0.156,0.42-2.041,0.523-2.931c0.104-0.89,0.105-1.728-0.209-2.46
		s0.732-2.669,0.732-3.35c0-0.68-0.68-1.15-1.518-0.471c-0.837,0.68-1.15,1.728-1.256,2.408c-0.055,0.354-0.113,0.855-0.355,1.406
		l-3.871-0.488c-0.163-0.6-0.231-1.176-0.012-1.809c0.471-1.36-0.156-2.406-0.838-2.355c-0.681,0.053-1.1,0.734-1.309,1.256
		c-0.209,0.524-0.575,0.996-0.837,0.682c-0.263-0.314-0.104-0.838,0.052-1.466c0.157-0.628,0.157-1.046-0.156-1.099
		c-0.173-0.029-0.484-0.072-0.732-0.107v-2.104c0.633-0.183,1.099-0.759,1.099-1.452c0-0.678-0.446-1.244-1.06-1.439
		c0.293-0.38,0.949-1.298,1.111-2.066c0.209-0.995,0.105-1.518,0.105-1.518s-0.629,0.418-0.891,0.785
		c-0.213,0.299-0.598,1.079-0.732,1.357c-0.135-0.278-0.519-1.058-0.732-1.357c-0.262-0.366-0.891-0.785-0.891-0.785
		s-0.104,0.523,0.105,1.518c0.162,0.768,0.818,1.686,1.111,2.066c-0.613,0.195-1.06,0.762-1.06,1.439
		c0,0.693,0.466,1.27,1.099,1.452v2.104c-0.248,0.035-0.56,0.078-0.732,0.107c-0.313,0.053-0.313,0.471-0.156,1.099
		c0.156,0.628,0.314,1.151,0.053,1.466c-0.263,0.314-0.629-0.157-0.838-0.682c-0.209-0.521-0.628-1.203-1.309-1.256
		c-0.681-0.051-1.309,0.995-0.838,2.355c0.22,0.633,0.151,1.209-0.011,1.809l-3.872,0.488c-0.242-0.551-0.301-1.052-0.355-1.406
		c-0.105-0.681-0.419-1.729-1.256-2.408c-0.838-0.68-1.518-0.209-1.518,0.471c0,0.681,1.047,2.617,0.732,3.35
		s-0.313,1.57-0.209,2.46c0.104,0.89,0,3.087,0.523,2.931c0.522-0.157,0.052-1.308,0.209-1.727c0.156-0.419,1.15,0.471,0.941,1.203
		c-0.125,0.438-0.209,0.989-0.137,1.518h-5.096v1.675h-33.494l1.256,8.493h-3.663l3.35,9.51v39.626h-13.273v-66.347h-0.768
		c0.188-0.932,0.924-2.031,1.27-2.594c0.67-1.088,0-2.844-0.418-3.848s-0.334-1.088-0.084-1.924
		c0.252-0.836-0.752-1.255-1.422-0.251c-0.669,1.004-0.669,3.429-0.669,4.35s-0.669,1.505-2.007,2.175
		c-0.75,0.375-0.948,1.326-0.979,2.092h-2.73v-27.604l-2.326-3.262h-14.904v-27.102h-1.172v27.102h-14.904l-2.328,3.262v27.604
		h-12.533l-2.01-5.727l-2.012,5.727H456.19l-2.01-5.727l-2.012,5.727H441.87l-2.01-5.727l-2.012,5.727H427.55l-2.01-5.727
		l-2.012,5.727h-12.143v-12.799h-2.064v-15.893h-2.007v-2.342h-1.171v-3.178h-1.506v3.178h-1.17v2.342h-2.008v15.893h-1.952
		c0-15.602-10.735-28.693-25.22-32.301v-2.078h-15.811v2.078c-14.484,3.608-25.219,16.699-25.219,32.301h-1.952v-15.893H329.3
		v-2.342h-1.172v-3.178h-1.505v3.178h-1.171v2.342h-2.008v15.893h-2.063v12.799h-12.144l-2.011-5.727l-2.011,5.727h-10.299
		l-2.011-5.727l-2.011,5.727h-10.299l-2.011-5.727l-2.011,5.727h-10.299l-2.011-5.727l-2.011,5.727h-12.533v-27.604l-2.327-3.262
		H232.49v-27.102h-1.171v27.102h-14.905l-2.327,3.262v27.604h-2.73c-0.029-0.766-0.229-1.717-0.978-2.092
		c-1.339-0.67-2.007-1.254-2.007-2.175s0-3.346-0.67-4.35c-0.669-1.004-1.673-0.585-1.422,0.251c0.25,0.836,0.334,0.92-0.083,1.924
		c-0.419,1.004-1.088,2.76-0.419,3.848c0.346,0.562,1.082,1.662,1.271,2.594h-0.769v51.481h-6.619l-1.79-4.726h-1.853v-14.644h1.019
		v-4.632l-9.914-1.917v-4.292l-2.271-1.301v-68.014l1.182-3.962v-4.518h-2.71v-4.239c0,0-0.262-1.266-2.676-1.635v-1.632
		l1.459-1.216c0,0,0.938,0.034,1.737-0.278c0.8-0.312,1.355-0.557,0.974-1.182c-0.383-0.626-2.502-4.761-2.502-4.761
		s0.694-0.348,0.834-0.312c0.139,0.034,0-0.521-0.209-1.043c-0.208-0.521-1.182-2.433-1.216-2.71
		c-0.035-0.278-0.66-1.494,1.042-2.78c1.703-1.286,2.294-2.537,2.676-3.231c0.383-0.695,2.189-2.676,3.267-3.579
		c1.077-0.904,0.348-1.355-0.834-0.765s-4.935,3.648-5.769,4.691c-0.834,1.042-1.563,1.771-1.563,1.771s0.348-1.528,0.104-1.98
		c-0.46-0.853-0.929-0.923-1.151-0.898c-0.223-0.024-0.691,0.046-1.151,0.898c-0.243,0.452,0.104,1.98,0.104,1.98
		s-0.168-0.169-0.431-0.454l-0.422-11.951h-0.603l0.337,11.172c-0.144-0.168-0.291-0.346-0.445-0.538
		c-0.834-1.043-4.587-4.101-5.769-4.691s-1.911-0.14-0.834,0.765c1.077,0.903,2.884,2.884,3.267,3.579
		c0.382,0.694,0.973,1.945,2.676,3.231c1.702,1.286,1.077,2.502,1.042,2.78c-0.034,0.277-1.008,2.188-1.216,2.71
		c-0.209,0.521-0.348,1.077-0.209,1.043c0.14-0.035,0.834,0.312,0.834,0.312s-2.119,4.135-2.502,4.761
		c-0.382,0.625,0.174,0.869,0.974,1.182c0.799,0.312,1.737,0.278,1.737,0.278l1.459,1.216v1.632
		c-2.414,0.369-2.676,1.635-2.676,1.635v4.239h-2.71v4.518l1.182,3.962v68.014l-2.271,1.301v4.292l-9.914,1.917v4.632h1.019v14.644
		h-1.853l-1.79,4.726h-8.682v2.547h-18.338l0.934-10.197c0,0,3.676-3.032,5.053-4.319c1.378-1.285,4.87-5.144,7.442-8.36
		c2.571-3.214,1.929-4.685,1.011-6.154s-2.756-1.286-7.902-0.552c-5.145,0.736-13.228,3.033-13.228,3.033
		c-9.739,2.48-15.343,5.695-22.969,7.165c-7.624,1.47-19.753,2.204-28.204,1.839c-8.453-0.369-12.863-2.299-14.424-3.125
		c-1.562-0.826-4.777-2.389-8.084-2.939c-3.309-0.552-2.481,2.939-1.471,5.236c1.01,2.297,10.014,13.506,10.014,13.506v4.868H4.09
		v15.985h642.698v6.132c0,0,1.807,1.529,8.896,2.502s21.962-2.919,21.962-2.919l18.226-5.715h10.169h3.372v7.753l5.561,5.746
		l16.864,1.482l12.604-5.375v-9.606h210.057v-5.762c3.751,1.516,6.028,3.497,6.028,5.668h13.649c0-4.766,10.952-8.627,24.463-8.627
		s24.465,3.861,24.465,8.627h22.443v-12.604h45.76v12.604h22.444c0-4.766,10.953-8.627,24.464-8.627
		c13.512,0,24.464,3.861,24.464,8.627h13.648c0-2.313,2.586-4.412,6.787-5.961v6.055h219.411v-78.211H1395.851z M168.997,400.417
		h-3.614v-14.644h3.614V400.417z M193.608,400.417h-3.613v-14.644h3.613V400.417z M343.794,407.99h-1.562v-41.22h-8.787v41.22
		h-1.562v-42.782h11.912V407.99z M358.066,407.99h-1.562v-41.22h-8.788v41.22h-1.562v-42.782h11.911V407.99z M372.339,407.99h-1.562
		v-41.22h-8.787v41.22h-1.562v-42.782h11.912V407.99z M386.61,407.99h-1.561v-41.22h-8.787v41.22H374.7v-42.782h11.91V407.99z
		 M400.884,407.99h-1.562v-41.22h-8.787v41.22h-1.562v-42.782h11.912V407.99z M323.002,358.091l43.35-18.856l0.032,0.072
		l0.031-0.072l43.35,18.856H323.002z M830.267,276.285L830.267,276.285h0.002c2.329,0,4.216,1.888,4.216,4.217
		c0,2.328-1.887,4.216-4.216,4.216h-0.001h-0.001c-2.328,0-4.216-1.888-4.216-4.216
		C826.051,278.173,827.938,276.285,830.267,276.285z M627.574,380.382v39.626h-10.938v-39.626H627.574z M610.881,380.382v39.626
		h-10.938v-39.626H610.881z M594.15,355.093c-0.205,0.266-0.465,0.534-0.802,0.797c-1.055,0.82-0.798,3.505-0.599,4.814h-1.59
		c0.179-1.137,0.482-3.416,0.252-4.605c-0.105-0.541-0.268-1.021-0.42-1.475L594.15,355.093z M582.098,354.624
		c-0.152,0.454-0.314,0.934-0.42,1.475c-0.23,1.189,0.073,3.469,0.252,4.605h-1.59c0.199-1.31,0.456-3.994-0.599-4.814
		c-0.337-0.263-0.597-0.531-0.802-0.797L582.098,354.624z M594.186,380.382v39.626h-15.281v-39.626H594.186z M573.146,380.382
		v39.626H562.21v-39.626H573.146z M545.516,380.382h10.938v39.626h-10.938V380.382z M955.526,408.546h-1.029v-5.964
		c0.612,0.363,1.028,1.024,1.029,1.788V408.546z M962.613,408.546h-4.178v-4.176c0.003-1.152,0.937-2.086,2.089-2.086
		s2.087,0.934,2.089,2.086V408.546z M969.7,408.546h-4.178v-4.176c0.002-1.152,0.937-2.086,2.089-2.086
		c1.151,0,2.087,0.934,2.089,2.086V408.546z M976.787,408.546h-4.177v-4.176c0.001-1.152,0.936-2.086,2.089-2.086
		c1.152,0,2.086,0.934,2.088,2.086V408.546z M983.873,408.546h-4.176v-4.176c0.001-1.152,0.936-2.086,2.089-2.086
		c1.152,0,2.087,0.934,2.087,2.086V408.546z M990.961,408.546h-4.177v-4.176c0.001-1.152,0.935-2.086,2.089-2.086
		c1.151,0,2.087,0.934,2.088,2.086V408.546z M998.049,408.546h-4.179v-4.176c0.003-1.152,0.938-2.086,2.089-2.086
		c1.153,0,2.087,0.934,2.09,2.086V408.546z M1005.135,408.546h-4.178v-4.176c0.002-1.152,0.938-2.086,2.09-2.086
		s2.086,0.934,2.088,2.086V408.546z M1012.223,408.546h-4.177v-4.176c0.001-1.152,0.935-2.086,2.089-2.086
		c1.151,0,2.087,0.934,2.088,2.086V408.546z M1019.309,408.546h-4.177v-4.176c0.003-1.152,0.937-2.086,2.089-2.086
		s2.087,0.934,2.088,2.086V408.546z M1041.704,406.226v-6.975h18.198c-6.774,2.225-12.243,6.395-14.356,8.158v-1.184H1041.704z
		 M1047.829,407.944c3.647-2.812,11.904-8.316,20.597-8.316s16.949,5.504,20.598,8.316H1047.829z M1095.147,406.226h-3.842v1.184
		c-2.113-1.764-7.581-5.934-14.355-8.158h18.197V406.226z M1121.72,408.546h-4.178v-4.176c0.002-1.152,0.938-2.086,2.089-2.086
		c1.153,0,2.087,0.934,2.089,2.086V408.546z M1128.807,408.546h-4.178v-4.176c0.002-1.152,0.937-2.086,2.089-2.086
		s2.087,0.934,2.089,2.086V408.546z M1135.895,408.546h-4.178v-4.176c0.002-1.152,0.936-2.086,2.088-2.086
		c1.153,0,2.088,0.934,2.09,2.086V408.546z M1142.98,408.546h-4.177v-4.176c0.002-1.152,0.936-2.086,2.088-2.086
		c1.153,0,2.088,0.934,2.089,2.086V408.546z M1150.068,408.546h-4.177v-4.176c0.001-1.152,0.936-2.086,2.088-2.086
		s2.087,0.934,2.089,2.086V408.546z M1157.154,408.546h-4.177v-4.176c0.001-1.152,0.937-2.086,2.088-2.086
		c1.154,0,2.088,0.934,2.089,2.086V408.546z M1164.241,408.546h-4.177v-4.176c0.001-1.152,0.936-2.086,2.088-2.086
		c1.154,0,2.088,0.934,2.089,2.086V408.546z M1171.33,408.546h-4.178v-4.176c0.002-1.152,0.936-2.086,2.089-2.086
		c1.151,0,2.087,0.934,2.089,2.086V408.546z M1178.416,408.546h-4.178v-4.176c0.002-1.152,0.938-2.086,2.089-2.086
		c1.152,0,2.087,0.934,2.089,2.086V408.546z M1181.325,408.546v-4.176c0.002-1.049,0.779-1.909,1.788-2.056v6.231H1181.325z"/>
	<polygon points="330.513,356.527 402.253,356.527 366.384,340.925 	"/>
</g>
</svg>
