<?xml version='1.0' encoding='utf-8'?>
<svg xmlns="http://www.w3.org/2000/svg" version="1.1" id="Layer_1" x="0px" y="0px" viewBox="0 0 2560 1354.172" enable-background="new 0 0 2560 1354.172"> <g> <path d="M1498.929,794.878c5.862-1.575,12.819,2.952,12.823,8.595c0.176,253.561-2.902,243.578,1.085,243.198 c2.097-0.199,2.991-2.82,3.138-4.864c0.198-2.762-1.416-5.784,1.474-8.047l-0.096,0.003c3.8,0.393,7.6,0.786,11.415,1.157 c0,3.169,0,6.337,0,11.137c2.472-4.379,5.162-5.595,8.669-4.925c1.223,0.234,2.432-0.129,2.381-1.715 c-0.146-4.604,0.78-9.246-0.495-13.81c-1.085-3.884-4.228-0.91-6.173-1.873c-2.573-1.274-6.979,3.192-7.417-0.512 c-0.403-3.408,4.565-1.266,7.075-1.828c3.154-0.706,5.886-2.67,9.348-2.596c2.335,0.05,0.034-506.752,0.003-507.763 c-0.327-10.924,2.715-7.161,10.519-9.601c0.224,0.253-0.096,1.373,0.823,0.513c-0.328-0.119-0.656-0.237-0.984-0.356 c3.283-4.683,14.056,0.746,19.138-15.728c0.338-1.096,1.098-1.896,1.919-1.685c4.427,1.139,7.509-2.975,11.888-2.709 c3.692,0.224,8.859-6.752,9.109-10.83c0.461-7.524-1.403-14.998-1.02-22.411c4.177-80.721-5.684-82.991,3.714-100.523 c0.972-1.813,6.214,1.541,6.399,4.671c0.487,8.238,2.42,17.14,0.797,24.607c-4.727,21.743,3.22,40.744-1.452,94.098 c-0.08,0.916-1.923,8.255,4.611,4.311c1.102-0.665,1.315-0.313,2.065,4.05c-0.285,0.129-0.569,0.258-0.854,0.387 c0.115,0.148,0.231,0.295,0.346,0.443c0.164-0.283,0.327-0.565,0.491-0.848c8.471,7.709,19.513,1.722,18.583,7.331 c-0.787,4.75,2,9.285,0.647,14.097c-0.445,1.583,2.15,1.751,6.396,0.16l-0.153,0.156c5.932,2.213,12.09,0.545,18.129,0.971 c0.807,0.057,2.016-0.771,0.86-2.315c-0.869-1.16-1.176-2.741-1.733-4.135c0,0,0.247,0.152,0.247,0.152 c1.093-0.472,1.094-0.944,0-1.417l-0.251,0.151c0.492-2.33-3.372-1.814-2.805-4.362c2.872-0.889,3.315,3.75,6.156,2.689 c0.373-0.031,0.738-0.045,1.103-0.059c-0.117-0.19-0.234-0.38-0.351-0.57c-0.257,0.247-0.514,0.494-0.771,0.741 c1.709,0.622,1.189-2.481,3.397-1.56c-1.593,3.984-0.801,5.443,4.135,4.481c3.778-0.736,7.887,0.28,11.858-0.633 c2.018-0.464,3.737,0.426,4.224,2.756c0.495-0.306-0.156,0.08-0.676,0.376c0.29,0.294,0.58,0.589,0.87,0.883l-0.183-0.085 c-0.286,1.399-3.639,1.894-1.95,3.221c5.086,3.997,9.764-3.944,13.153-1.382c2.147,1.622,3.015,4.8-0.318,7.146 c-0.487,0.342-0.327,33.567-0.329,34.162c-0.006,1.812-0.012,4.131,1.983,4.244c3.019,0.172,8.603,2.099,4.809,4.443 c8.784,0.983,16.786,1.585,24.786,2.358c6.109,0.591,12.032-2.402,18.215,0.184c2.446,1.023,3.656,2.295,3.434,4.207 c-4.797,41.424,0.258,220.812-2.399,299.064c5.852,1.141,64.473,4.403,67.952,7.035c1.63-10.146-0.79-35.007,0.679-47.201 c1.965-16.308,1.73-18.24,9.865-17.971c13.144,0.434,0.838-11.67,14.455-11.705c13.557-0.034,9.214-1.021,30.141-3.277 c-0.005-0.006,0.248-0.204,0.248-0.204l-0.326,0.143c3.272-4.509-2.463-4.803-3.221-7.411c1.951-0.733,3.533-1.235,6.323-0.034 c4.818,2.073,10.439,0.251,15.69-0.221c5.046-0.453-2.621-34.159,2.129-44.772c1.757-3.927,5.212,0.012,7.928-0.894 c8.128-2.711,16.448,1.482,17.165-2.962c0.39-2.42,8.887-0.306,12.006-0.649c2.343-0.257,1.875-3.071,2.036-4.885 c0.652-7.371,0.902-7.507,8.202-7.548c32.631-0.181,15.598-2.851,22.196-7.376c2.807,0.68-1.39,4.344,1.974,4.714 c5.242,0.576-0.176-5.753,4.485-5.643c0.922,1.19-1.236,2.49-0.956,4.053c0.272,1.518-0.16,3.314,2.251,3.087 c4.565-0.43,5.188,2.358,4.749,5.856c-0.897,7.133,5.766,3.528,11.636,7.686c6.222,4.407,8.823-1.347,12.278-4.15 c2.241-1.818-1.87-4.557,0.062-6.959c3.304,0.87,0.182,4.487,2.698,5.645c1.819-0.906-1.217-2.781,1.163-3.82 c0.69,8.928,7.177,6.044,12.362,6.071c16.468,0.087,21.471-4.231,21.493,5.905c0.326,157.349-1.234,266.701-1.234,266.701 c0.007,5.691,4.277,1.602,16.573,4.237c3.142,0.673,6.527-0.899,7.68,4.301c0.585,2.641,4.834,1.421,7.392,1.569 c10.264,0.593,10.316,0.483,10.262-9.851c-0.149-28.727,0.827-57.458-0.337-86.18c-0.103-2.541-3.077-18.794,2.35-27.509 c6.755-10.847-4.986-24.124,9.79-36.459c5.216-4.355,6.638-10.93,8.154-16.59c2.196-8.199,6.091-15.737,7.946-23.964 c0.628-2.789,2.32-3.446,3.64-0.211c11.177,27.398,9.113,26.188,14.75,25.287c42.428-6.779,43.424,3.625,43.073-13.039 c-0.506-24.009,1.533-47.958,1.466-71.954c-0.006-2.131-2.26-3.716,2.805-3.974c-0.091-0.185-0.181-0.37-0.271-0.556 c-0.271,0.23-0.542,0.461-0.813,0.691c5.167-3.44,11.349-2.68,17.01-4.081c9.032-2.235,18.213-0.55,27.442-0.3 c-0.112-3.408,22.558-2.292,37.535-1.47c18.209,0.999,7.462-7.023,16.282-11.531l-0.186,0.257c0.156,0.29,0.313,0.58,0.469,0.87 c0.31-0.288,0.619-0.576,0.929-0.865l-0.17-0.253c18.153-18.857,39.452-14.259,43.291-12.547 c12.246,5.459,18.949-6.981,19.571,4.403c0.335,6.139,14.593,0.678,20.485,2.066c4.472,1.054,10.601-2.753,12.957,4.453 c0.649,1.986,2.085,0.776,3.272,0.934c9.981,1.335,7.397,1.945,7.568,45.727c0.493,126.658-0.038,148.823,0.967,150.727 c0.958-12.849,16.73-7.096,36.363-8.207c2.924-0.165,5.623,1.707,8.837,1.416c2.259-0.204,2.627,2.397,2.625,4.393 c-0.016,17.793-1.803,20.144,4.786,19.872c42.265-1.747,25.974-11.136,29.599,70.927c0.244,5.52,2.565,6.938,7.052,5.065 c3.695-1.542,6.665,0.959,10.121,0.859c8.62-0.252,6.053-0.999,7.116-32.092c0.028-0.829,0.597-1.639,1.771-2.381 c0,32.686-0.705,31.098,1.471,31.973c10.928,4.399,8.522-8.154,22.456-1.123c4.591,2.316,5.24,0.812,5.194-3.416 c-0.129-11.798,1.915-23.532,1.156-35.361c-0.065-1.007-0.384-2.31,1.432-3.052c2.014,2.4-0.313,10.294,0.177,15.983 c0.584,6.787,0.002,6.729,6.718,5.374c8.204-1.655,1.998,12.934,6.035,13.289c1.99,0.175,2.04-2.47,1.851-3.471 c-1.927-10.175,6.887-5.932,7.887-6.915c6.495-6.382,13.693-0.39,20.503-1.16c10.024-1.133-1.522,19.812,7.698,21.022 c0,111.825-0.026,223.651,0.103,335.476c0.01,8.366,152.41,5.301-2560,5.301c0-385.148-7.109-297.839,16.659-307.378 c10.371-4.162,26.603,1.531,27.835-2.448c3.862-12.472,8.562-0.829,7.02-9.956c-2.901-17.172,13.012,3.957,13.948-11.736 c0.08-1.34-1.193-3.273,1.532-3.413c1.834-0.094,3.992,0.125,4.36-2.338c0.398-2.664-2.955-1.782-3.81-3.418 c0.966-2.061,2.981-1.546,4.043-1.148c15.027,5.644,38.225-1.784,43.877,5.179c1.784,2.198,7.658,1.358,11.685,1.362 c10.065,0.008,3.89,10.759,15.42,9.605c1.533-0.153,3.097,0.022,4.648,0.03c7.11,0.037,7.023,0.034,6.97,7.822 c-0.017,2.461,0.152,5.542,4.005,4.565c3.783-0.96,3.639,4.197,7.272,3.986c5.889-0.342,12.104,0.983,17.551-1.532 c4.795-2.215,9.352-1.438,13.961-0.833c6.656,0.874,13.78-2.62,20.048,2.234c5.64,4.368-1.663-22.724,2.486-97.108 c0.053-0.945,0.484-2-0.512-2.616c-5.312-3.282-7.836-9.37-13.68-13.174c11.84-3.178,13.662-11.94,13.351-21.977 c-0.546-17.613,10.832-36.415,27.284-42.182c2.392-0.839,5.704-3.023,4.442-6.982c-0.59-1.85,0.84-3.826,1.443-3.857 c5.829-0.294,4.075-4.641,3.935-7.563c-0.32-6.684,1.445-13.484-1.117-20.091c-0.388-1,6.032-13.707-6.752-20.135 c19.255-13.494,8.472-6.022,15.212-36.594c2.567-11.646,21.135-9.616,27.471-18.699c3.629-5.203,3.748-5.506-3.142-8.115 c9.07-0.712,3.75-6.625,7.052-15.156c1.382-3.571,0.482-5.062-2.884-7.029c-5.387-3.147-4.374-13.336,1.123-16.105 c3.912-1.971,3.187-10.594-0.548-14.226c-4.745-4.613-10.016-8.848-11.032-16.403c-0.389-2.891-5.843-2.127-7.667-5.161 c0.216-2.535,9.814-0.723,8.018-8.213c-0.398-1.661,0.588-2.493,2.271-2.473c0.226,0.251-0.089,1.373,0.825,0.508 c-0.329-0.117-0.658-0.234-0.986-0.351c-1.533-7.207,12.741-8.702,11.857-20.849c-1.777-24.43,6.761-12.222,4.395,1.107 c-2.092,11.787,21.964,21.655,11.926,28.125c2.854,2.039,8.803-0.885,9.095,3.434c0.182,2.692-1.161,2.08-6.635,2.001 c-0.009,0.014-0.251-0.087-0.251-0.087l0.421,0.095c-1.041,3.351-1.752,6.429-3.879,9.788c-3.687,5.823-12.989,8.901-10.77,18.208 c0.492,2.061-0.146,3.893,3.134,4.901c5.311,1.632,6.181,11.606,1.77,15.373c-1.893,1.617-5.115,2.725-4.465,5.627 c1.184,5.293-1.06,11.386,3.379,15.87c1.116,1.127,2.759,2.352,1.397,3.524c-4.248,3.654-0.888,4.83,1.478,7.215 c11.408,11.5,27.916,9.439,26.209,34.155c-1.465,21.206,17.148,20.995,10.631,25.975c-10.468,8-2.1,15.101-4.068,19.529 c-3.11,7.001-1.254,14.445-1.961,21.66c-0.188,1.919,1.711,1.787,2.3,2.905c1.162,2.203,7.432,2.284,2.876,7.028 c-0.235,0.245,1.707,2.25,3.238,2.983c16.878,8.077,24.954,22.245,27.527,41.101c3.374-0.609,1.155-3.654,3.417-4.861 c1.146,7.997-0.589,16.064,2.12,23.699c-0.008-1.002-1.354-217.17-0.318-217.319c6.878-0.989,13.141-4.452,20.201-4.815 c8.587-0.442,4.924-4.384,1.19-13.153c7.382-3.539,6.392,4.571,13.303,11.007c4.071,3.791,8.968,3.4,11.286-7.273 c0.208-0.956,0.342-2.415,1.423-1.988c3.88,1.535,7.601-0.395,11.398-0.19c1.204,0.065,2.543,0.605,3.704-0.772 c2.648-3.139,5.4-6.185,8.264,0.027c1.776,3.853,7.484-3.337,10.942,0.997c0.213,0.267,0.781,0.593,0.962,0.493 c12.695-7.052,26.035-0.586,39.028-1.803c23.052-2.159,32.003,2.595,29.342-4.278c-0.468-1.209-1.417-3.588,1.616-3.915 c10.397-1.119-2.398,9.511,14.036,9.335c8.872-0.095,8.867-0.02,9.609,8.481c0.109,1.244-0.395,3.17,1.672,2.999 c5.671-0.47,10.538,2.935,16.362,2.676c7.609-0.339,15.063,2.7,22.838,2.529c3.815-0.084,4.648,2.335,4.626,6.067 c-0.706,117.116,0.488,215.693,1.128,223.859c-0.199,0.132-0.399,0.264-0.598,0.396c0.422-0.013,0.362,0.165,0.487-0.52 c0.994,88.013-3.227,87.29,5.665,87.404c4.297,0.055,9.542-2.166,12.067,4.648c0.606,1.634,6.664,3.583,9.748,1.215 c7.318-5.616,16.633,5.739,21.71-3.073c0.19-0.33,1.202-0.613,1.449-0.422c7.396,5.702,2.414-1.958,4.259-37.882 c0.313-6.093,1.461-12.02,0.056-18.189c-0.646-2.835,1.988-3.434,4.655-3.495c3.015-0.069,4.848,0.449,4.512,3.981 c-1.95,20.5,0.336,40.94,0.077,54.052c-0.11,5.562,3.637,4.526,6.953,4.456c2.122-0.045,2.296-0.026,2.133-4 c-0.918-22.499-1.326-45.017-1.351-67.534c-0.007-6.619-3.805-39.631,2.05-43.173c1.951-1.18,4.363-1.198,6.643-1.2 c13.525-0.01,27.022-0.959,40.493-2.087c10.45-0.875,24.764,0.571,34.659-2.547c4.315-1.36,4.576-3.406,5.485-7.338 c1.634-7.068,1.214-15.005,1.337-22.196c0.675-39.521-0.323-79.099-0.519-118.621c-0.364-73.296-0.122-146.594,0.54-219.888 c1.588-174.899-7.033-167.201,6.488-174.15c8.902-4.575,18.273-0.684,27.232-2.222c11.915-2.045,21.719,3.509,31.917,8.036 c1.873-1.954-0.353-5.157,2.228-6.715c2.592,1.457-2.391,9.679,8.249,11.331c5.919,0.919,11.258,5.557,16.865,8.522 c2.021,1.069,1.421,3.004,1.44,4.611c0.335,28.528-1.451,31.053,4.18,26.905c2.822-2.079,0.285,4.527,3.701,4.139 c2.395-0.272,1.405-2.415,1.411-3.717c0.079-15.308,0.252-30.621-0.068-45.923c-0.248-11.885,7.575-5.732,10.698-16.736 c3.743-13.19,4.033-18.287,3.316-113.245c-0.127-16.825,10.416-2.13,15.792-31.76c0.886-4.883,1.114-9.847-0.565-14.768 c-4.428-12.973,6.206-30.143-0.739-44.749c-0.617-1.298-0.958-3.356-0.357-4.505c6.104-11.669-1.143-76.683,6.836-76.763 c5.161-0.051-0.456,6.99,4.636,15.843c2.09,3.634,0.057,7.424,0.054,11.145c-0.012,13.553-1.849,27.441,0.533,40.562 c2.219,12.224-2.846,23.784-0.261,35.44c3.936,17.745-2.154,50.035,9.269,50.582c9.211,0.441,6.084,8.146,8.861,9.183 c9.046,3.378,5.811,4.599,6.326,78.757c0.104,15.025,0.882,30.053,0.66,45.07c-0.068,4.64,1.565,7.233,5.31,8.308 c5.418,1.555,4.249,2.833,4.425,32.314c0.008,1.286-0.667,2.832,1.307,3.277c3.027,0.682,1.66-4.753,4.652-3.684 c6.361,2.272,13.08,1.23,19.606,1.773c7.293,0.607,14.451,2.731,21.929,1.844c4.445-0.527,8.447,2.228,12.756,3.168 c10.764,2.348,4.919,14.665,6.24,68.785c0.262,10.726,1.785,141.258-0.189,147.624c-0.05-0.043-0.097-0.091-0.144-0.14 c0.094,0.08,0.188,0.161,0.281,0.241c-0.096,0.786-0.192,1.572-0.287,2.361c-0.253,0.225-1.373-0.095-0.513,0.824 c0.118-0.328,0.237-0.656,0.355-0.984c2.079,3.899,6.497,2.883,9.562,3.67c8.529,2.191,17.41,2.49,25.861-1.984 c7.068,22.049,5.346,21.259,5.35,123.602c0,7.359-0.331,10.413,2.452,11.127c2.86,0.733,5.867-0.617,6.814-4.104 c0.899-3.311,1.903-0.958,2.903-0.124c-0.305-0.145-0.608-0.287-0.912-0.43c-0.036,0.184-0.072,0.368-0.108,0.552 c0.339-0.052,0.677-0.104,1.016-0.155c1.843,1.355-1.327,2.766,0.192,4.634c0.953,1.172,1.2,2.377,2.685,1.288 c10.104-7.419,16.999,1.205,25.199,4.687c1.133-0.998,0.053-2.709,0.551-4.068c1.203-3.289,5.868-2.615,5.974,0.297 c0.15,4.13,0.969,8.253,0.891,12.367c-0.074,3.919,2.13,5.374,5.229,5.451c28.956,0.722,26.142,0.354,26.349-3.116 c0.768-12.91,0.136-13.5,2.609-14.778c1.232-0.636,2.587,0.51,2.862,1.314c1.006,2.936,2.916,1.558,4.858,1.761 c3.641,0.381,6.831-4.097,11.003-0.145c2.215,2.098,5.878-2.293,9.737-0.689c1.436,0.597,1.421-3.539,0.365-6.392 c10.017,9.784,12.146,21.129,9.724,34.388c3.141-1.1,4.442-2.139,7.296-0.034c3.163,2.332,9.274,0.779,14.096,0.684 c1.149-0.023,1.331,0.883,2.421-16.645c0.228-3.671,2.897-4.216,4.315-1.979c2.062,3.254,4.545,2.304,7.067,2.299 c9.479-0.02,18.883-0.707,28.016-3.531c0.527-0.163,1.605,0.034,1.635-0.107c1.58-7.347,5.684-2.612,9.378-2.474 c6.878,0.257,14,2.203,20.767-1.271c2.11-1.083,3.584,1.788,5.772,1.76c5.613-0.073,11.229-0.075,16.84,0.058 c12.762,0.302,8.81-57.18,9.675,208.632c0.01,3.079-1.432,6.638,1.615,9.276l-0.15-0.152c1.245,0.849,2.491,1.699,3.74,2.538 c-0.042-0.082-0.089-0.154-0.135-0.225c-0.022,0.112-0.043,0.223-0.065,0.335c6.42,0.409,12.833-0.618,18.894-2.124 c11.608-2.884,2.867-17.974,7.412-32.433c1.504-4.782,7.173-8.066,11.796-6.687l-0.135-0.176c0.445,1.329,0.919,0.864,1.399,0.023 l-0.125,0.155c0.771-0.002,1.541-0.003,2.312-0.005l-0.117-0.18c0.437,1.113,0.942,0.382,1.432,0.053l-0.102,0.138 c0.765-0.002,1.53-0.004,2.296-0.006l-0.124-0.172c0.455,1.139,0.93,0.838,1.411,0.019l-0.115,0.154 c1.305-1.054,2.456-2.476,3.942-3.094c12.519-5.203-6.721-10.68,3.243-11.491c1.502-0.122,0.821,2.313,0.987-43.009 c0.022-6.164,2.481-8.965,8.681-8.559c12.687,0.83,25.645-1.124,37.936,0.761c10.346,1.586,6.919-4,6.939-8.123 c0.118-24.769-0.017-49.54-0.014-74.31c0.001-7.94,8.434-13.8,15.524-11.217c-1.019-14.307-0.229-28.763-0.489-43.2 c-0.035-1.942,1.905-2.289,2.438-3.696l-0.185,0.099c0.446-0.451,0.892-0.901,1.339-1.351l-0.174,0.176 c0.289-0.161,0.579-0.322,0.868-0.483c-0.289-0.292-0.579-0.583-0.868-0.875l0.164,0.153c5.478-3.969,11.835-2.948,17.981-3.21 c33.546-1.432,33.137,1.189,33.12,7.781c-0.031,12.181-0.049,24.362,0.01,36.543c0.018,3.801,1.66,6.085,5.91,5.339l-0.158,0.158 c1.282-1.369,2.68-0.377,4.038-0.198l0.104-0.201c0.689,5.812,3.489-1.362,4.776,0.777l-0.024-0.112 c1.921,0.052,1.63,5.515,4.993,2.04L1498.929,794.878z"/> <path d="M1532.471,1035.976c-2.256,1.26-1.965-1.131-0.659-0.728C1532.074,1035.329,1532.244,1035.708,1532.471,1035.976z"/> <polygon points="1019.87,630.227 1019.469,630.008 1019.932,629.897 "/> <polygon points="1540.452,949.865 1540.955,949.712 1540.909,950.091 "/> <path d="M1517.449,1033.76c-0.493-0.088-1.333-0.054-1.414-0.286c-0.459-1.308,0.286-0.18,1.288,0.303 C1517.354,1033.763,1517.449,1033.76,1517.449,1033.76z"/> <path d="M1528.755,1034.943c-0.087-0.728-0.174-1.456-0.261-2.183c1.391,0.286,0.166,0.554,0.275,2.159 C1528.768,1034.92,1528.755,1034.943,1528.755,1034.943z"/> <polygon points="198.77,1040.518 199.096,1040.678 198.74,1040.783 "/> <path d="M1679.343,498.058c1.282,0.379,0.591,0.776,0.011,1.173c0,0.001,0.183,0.086,0.183,0.086 c-0.005-0.457-0.01-0.913-0.015-1.37L1679.343,498.058z"/> <path d="M2259.897,724.51c0.097,0.269,0.195,0.538,0.292,0.807c0.25-0.265,0.5-0.53,0.751-0.797c0-0.002,0.17,0.252,0.17,0.251 c-0.467-0.002-0.933-0.003-1.399-0.005L2259.897,724.51z"/> <path d="M1427.179,746.941c-0.024-0.788,0.401-1.114,1.145-1.113c0,0-0.163-0.667-0.163,1.205c0.271-0.274-0.721-0.187-1.167-0.192 L1427.179,746.941z"/> <path d="M1427.18,748.109c-0.893-0.388-0.957-0.777-0.001-1.167c0,0-0.186-0.101-0.186-0.101c0.001,0.456,0.002,0.911,0.003,1.367 L1427.18,748.109z"/> <path d="M1231.343,773.121c-0.062,0.11-0.124,0.221-0.186,0.331c-0.166-0.12-0.332-0.241-0.499-0.361 C1231.107,772.685,1230.93,772.675,1231.343,773.121z"/> <path d="M1485.346,792.28c-0.292-0.122-0.584-0.243-0.877-0.365c0.138-0.128,0.276-0.256,0.413-0.384 C1485.009,791.906,1485.112,792.514,1485.346,792.28z"/> <path d="M1489.226,792.24c-0.063-0.124-0.126-0.248-0.19-0.372c0.091,0.068,0.183,0.136,0.284,0.188 C1489.331,792.039,1489.226,792.24,1489.226,792.24z"/> <path d="M1494.106,792.816c0.425,0.047,0.851,0.094,1.276,0.141c-0.055,0.158-0.109,0.317-0.164,0.475 c-0.374-0.232-0.749-0.464-1.129-0.712C1494.083,792.704,1494.106,792.816,1494.106,792.816z"/> <path d="M1499.075,794.744c-0.244-0.208-0.489-0.415-0.733-0.623c0.209-0.065,0.417-0.131,0.626-0.196 c-0.008,0.313-0.015,0.625-0.031,0.945C1498.929,794.878,1499.075,794.744,1499.075,794.744z"/> <path d="M1339.86,954.043c0.19-0.311,0.381-0.623,0.571-0.934c0.189,0.311,0.378,0.623,0.567,0.935c0,0,0.593-0.147-1.273-0.177 L1339.86,954.043z"/> <path d="M1343.311,954.04c0.412-0.949,0.817-1.049,1.213,0.011c0.001,0,0.103-0.137,0.103-0.138 c-0.478-0.018-0.955-0.035-1.432-0.053L1343.311,954.04z"/> <path d="M1346.821,954.045c0.39-1.081,0.781-1.137,1.171,0.001c0,0,0.588-0.148-1.295-0.173L1346.821,954.045z"/> <path d="M1652.399,495.69c0.292-0.185,0.584-0.371,0.875-0.556c-0.292-0.186-0.583-0.372-0.877-0.557 c-0.002,0,0.249-0.151,0.249-0.151c0,0.472,0,0.945,0,1.417L1652.399,495.69z"/> <path d="M1298.368,992.792c-0.055-0.362-0.11-0.723-0.164-1.085c1.124,0.321,0.074,0.604,0,0.919 C1298.219,992.64,1298.368,992.792,1298.368,992.792z"/> <path d="M1635.296,501.012c0.007,0.113,0.015,0.226,0.022,0.339c-0.063-0.05-0.126-0.099-0.182-0.166 C1635.143,501.168,1635.296,501.012,1635.296,501.012z"/> </g> </svg>